#!OML:ASF H:\Dans Jumps\Project 1\Capture day 1\Session 1\subject.ASF
:FULLY-SPECIFIED
:DEGREES
540
root 0.164761 17.8146 -1.98178 7.03013 0.16161 -1.28582
lowerback -2.8295 -0.615125 -0.254526
upperback 3.11505 -0.878102 1.58163
thorax 4.83324 -0.475663 1.71711
lowerneck -10.6229 0.712978 -1.65356
upperneck 39.1518 1.27206 0.627455
head 15.5404 0.372576 0.765673
rclavicle 9.19379e-015 -7.35503e-015
rhumerus -26.0596 -17.3429 -80.5087
rradius 23.0922
rwrist 33.6737
rhand -20.6706 -26.586
rfingers 7.12502
rthumb 5.69243 -56.4895
lclavicle 9.19379e-015 -7.35503e-015
lhumerus -20.0455 -3.21581 89.4229
lradius 18.6253
lwrist 4.84286
lhand -26.294 -4.85047
lfingers 7.12502
lthumb 0.261753 25.1291
rfemur -14.2781 -3.02276 19.9485
rtibia 20.0593
rfoot -11.4843 -2.67242
rtoes 16.1241
lfemur -12.6225 6.44091 -17.1763
ltibia 15.9641
lfoot -8.56606 1.57156
ltoes 5.13142
541
root 0.16584 17.8142 -1.97966 7.02126 0.162564 -1.28959
lowerback -2.83869 -0.610468 -0.246018
upperback 3.11906 -0.872509 1.58356
thorax 4.84238 -0.472679 1.71464
lowerneck -10.6207 0.715 -1.64521
upperneck 39.1309 1.28074 0.607446
head 15.5295 0.375139 0.756771
rclavicle 6.16232e-015 -7.35503e-015
rhumerus -26.1022 -17.3816 -80.4869
rradius 23.0783
rwrist 33.7015
rhand -20.6776 -26.5778
rfingers 7.12502
rthumb 5.68561 -56.4815
lclavicle 6.16232e-015 -7.35503e-015
lhumerus -20.1015 -3.12092 89.4201
lradius 18.5375
lwrist 4.70857
lhand -26.2903 -4.86537
lfingers 7.12502
lthumb 0.265363 25.1142
rfemur -14.2608 -3.02605 19.9481
rtibia 20.0598
rfoot -11.4901 -2.67112
rtoes 16.1055
lfemur -12.6118 6.44585 -17.1756
ltibia 15.9776
lfoot -8.57882 1.56842
ltoes 5.10984
542
root 0.166985 17.814 -1.97755 7.0121 0.163553 -1.29297
lowerback -2.8472 -0.607401 -0.238908
upperback 3.12467 -0.869047 1.5868
thorax 4.85291 -0.470842 1.71417
lowerneck -10.619 0.717781 -1.63784
upperneck 39.106 1.29151 0.585408
head 15.5165 0.378194 0.747464
rclavicle 1.02374e-014 -6.16232e-015
rhumerus -26.137 -17.4219 -80.4655
rradius 23.057
rwrist 33.7392
rhand -20.6893 -26.5632
rfingers 7.12502
rthumb 5.67436 -56.4672
lclavicle 1.02374e-014 -6.16232e-015
lhumerus -20.1612 -3.01537 89.4175
lradius 18.4574
lwrist 4.56994
lhand -26.2898 -4.89468
lfingers 7.12502
lthumb 0.265832 25.0849
rfemur -14.2428 -3.02756 19.9468
rtibia 20.0593
rfoot -11.4965 -2.67158
rtoes 16.0868
lfemur -12.5992 6.44872 -17.1752
ltibia 15.9875
lfoot -8.59039 1.56615
ltoes 5.09934
543
root 0.168226 17.8137 -1.97554 7.00353 0.1642 -1.29364
lowerback -2.85511 -0.605657 -0.235311
upperback 3.132 -0.867217 1.59052
thorax 4.86503 -0.469964 1.71606
lowerneck -10.6209 0.720976 -1.63282
upperneck 39.0801 1.30366 0.563122
head 15.504 0.381438 0.738718
rclavicle 1.14301e-015 -1.15295e-014
rhumerus -26.1644 -17.4607 -80.4459
rradius 23.0331
rwrist 33.7814
rhand -20.6957 -26.5518
rfingers 7.12502
rthumb 5.6681 -56.456
lclavicle 1.14301e-015 -1.15295e-014
lhumerus -20.2221 -2.90671 89.4161
lradius 18.384
lwrist 4.43365
lhand -26.2893 -4.92936
lfingers 7.12502
lthumb 0.266377 25.0502
rfemur -14.2256 -3.02825 19.9422
rtibia 20.0583
rfoot -11.5031 -2.67314
rtoes 16.0661
lfemur -12.5863 6.44961 -17.1782
ltibia 15.995
lfoot -8.60058 1.56557
ltoes 5.10395
544
root 0.169494 17.8135 -1.97355 6.99505 0.16536 -1.29514
lowerback -2.86193 -0.60558 -0.23198
upperback 3.13977 -0.867659 1.59552
thorax 4.87709 -0.470253 1.71928
lowerneck -10.6223 0.724661 -1.63153
upperneck 39.0527 1.31692 0.542292
head 15.4905 0.384789 0.73142
rclavicle -1.04362e-015 -3.97569e-015
rhumerus -26.186 -17.4935 -80.4293
rradius 23.0057
rwrist 33.8212
rhand -20.6961 -26.5482
rfingers 7.12502
rthumb 5.66777 -56.4524
lclavicle -1.04362e-015 -3.97569e-015
lhumerus -20.2857 -2.80606 89.4169
lradius 18.3159
lwrist 4.30455
lhand -26.2791 -4.93944
lfingers 7.12502
lthumb 0.276223 25.0401
rfemur -14.2085 -3.0295 19.9387
rtibia 20.0566
rfoot -11.509 -2.67634
rtoes 16.0387
lfemur -12.5735 6.45168 -17.1805
ltibia 16.0016
lfoot -8.6122 1.56414
ltoes 5.11332
545
root 0.170835 17.8133 -1.97162 6.98719 0.165036 -1.29959
lowerback -2.86765 -0.606021 -0.22656
upperback 3.14723 -0.868967 1.60223
thorax 4.88822 -0.470925 1.72304
lowerneck -10.6208 0.729055 -1.63014
upperneck 39.0219 1.33185 0.519398
head 15.4746 0.388614 0.723425
rclavicle 5.01931e-015 -1.47101e-014
rhumerus -26.2019 -17.5292 -80.4118
rradius 22.9712
rwrist 33.8669
rhand -20.6925 -26.5444
rfingers 7.12502
rthumb 5.67123 -56.4485
lclavicle 5.01931e-015 -1.47101e-014
lhumerus -20.3514 -2.72465 89.4234
lradius 18.2507
lwrist 4.20019
lhand -26.2659 -4.93545
lfingers 7.12502
lthumb 0.288912 25.0441
rfemur -14.1921 -3.029 19.9384
rtibia 20.0542
rfoot -11.5144 -2.68015
rtoes 16.0136
lfemur -12.5616 6.45493 -17.18
ltibia 16.0089
lfoot -8.624 1.56404
ltoes 5.12382
546
root 0.172162 17.8132 -1.96981 6.98161 0.163107 -1.30626
lowerback -2.87172 -0.606461 -0.220204
upperback 3.1527 -0.870327 1.60984
thorax 4.89636 -0.471585 1.72722
lowerneck -10.6199 0.733864 -1.62869
upperneck 38.993 1.34723 0.496835
head 15.4599 0.392658 0.715663
rclavicle 7.95139e-015 6.55989e-015
rhumerus -26.2186 -17.554 -80.398
rradius 22.9422
rwrist 33.9009
rhand -20.6775 -26.5512
rfingers 7.12502
rthumb 5.68569 -56.4549
lclavicle 7.95139e-015 6.55989e-015
lhumerus -20.4196 -2.66963 89.4358
lradius 18.1863
lwrist 4.11931
lhand -26.2579 -4.91827
lfingers 7.12502
lthumb 0.296705 25.0613
rfemur -14.178 -3.0256 19.9409
rtibia 20.0507
rfoot -11.5178 -2.68685
rtoes 15.9864
lfemur -12.5533 6.45848 -17.1772
ltibia 16.0179
lfoot -8.63665 1.56664
ltoes 5.13131
547
root 0.173515 17.8131 -1.96803 6.97764 0.158957 -1.3149
lowerback -2.87579 -0.605167 -0.21086
upperback 3.15735 -0.869482 1.61673
thorax 4.90348 -0.471021 1.72913
lowerneck -10.6183 0.737939 -1.62372
upperneck 38.9622 1.36104 0.472903
head 15.444 0.396401 0.706423
rclavicle -1.2424e-015 1.45113e-014
rhumerus -26.2356 -17.5867 -80.384
rradius 22.914
rwrist 33.9369
rhand -20.6678 -26.5494
rfingers 7.12502
rthumb 5.69511 -56.4529
lclavicle -1.2424e-015 1.45113e-014
lhumerus -20.4895 -2.64128 89.4535
lradius 18.1236
lwrist 4.06176
lhand -26.2547 -4.90984
lfingers 7.12502
lthumb 0.299784 25.0697
rfemur -14.1654 -3.01911 19.9453
rtibia 20.0464
rfoot -11.5204 -2.69464
rtoes 15.964
lfemur -12.5472 6.46486 -17.1727
ltibia 16.0285
lfoot -8.65015 1.5698
ltoes 5.13698
548
root 0.174949 17.813 -1.96636 6.97632 0.153255 -1.3229
lowerback -2.87805 -0.602682 -0.200903
upperback 3.1594 -0.866968 1.62228
thorax 4.90677 -0.46955 1.72946
lowerneck -10.6167 0.741357 -1.6149
upperneck 38.9322 1.37338 0.447476
head 15.4287 0.399881 0.695645
rclavicle 1.00386e-014 -1.59028e-014
rhumerus -26.2554 -17.6281 -80.3685
rradius 22.887
rwrist 33.9724
rhand -20.6652 -26.5412
rfingers 7.12502
rthumb 5.69759 -56.4446
lclavicle 1.00386e-014 -1.59028e-014
lhumerus -20.5624 -2.63372 89.4758
lradius 18.0599
lwrist 4.01875
lhand -26.2562 -4.92175
lfingers 7.12502
lthumb 0.298261 25.0578
rfemur -14.1558 -3.0103 19.9488
rtibia 20.0415
rfoot -11.522 -2.7025
rtoes 15.9473
lfemur -12.5447 6.47313 -17.1694
ltibia 16.0395
lfoot -8.66316 1.57299
ltoes 5.14157
549
root 0.176452 17.813 -1.96477 6.977 0.148564 -1.32943
lowerback -2.8804 -0.600162 -0.191839
upperback 3.16095 -0.864334 1.62732
thorax 4.90959 -0.468037 1.72976
lowerneck -10.614 0.743074 -1.60647
upperneck 38.8999 1.38276 0.423124
head 15.4121 0.402233 0.684913
rclavicle -6.5102e-015 2.34566e-014
rhumerus -26.2782 -17.6709 -80.3531
rradius 22.8681
rwrist 34.0012
rhand -20.6669 -26.5295
rfingers 7.12502
rthumb 5.69592 -56.433
lclavicle -6.5102e-015 2.34566e-014
lhumerus -20.6351 -2.6382 89.5024
lradius 17.9967
lwrist 3.98724
lhand -26.258 -4.93695
lfingers 7.12502
lthumb 0.296514 25.0426
rfemur -14.1484 -3.00157 19.9504
rtibia 20.0365
rfoot -11.524 -2.71065
rtoes 15.938
lfemur -12.5446 6.48146 -17.168
ltibia 16.05
lfoot -8.67461 1.57338
ltoes 5.13891
550
root 0.177965 17.8129 -1.96321 6.97887 0.143565 -1.33474
lowerback -2.88273 -0.597764 -0.184284
upperback 3.16216 -0.861744 1.63155
thorax 4.91205 -0.46658 1.73006
lowerneck -10.6107 0.743387 -1.59853
upperneck 38.8657 1.38939 0.400535
head 15.3943 0.403599 0.674576
rclavicle 2.18663e-015 -4.96962e-015
rhumerus -26.299 -17.7205 -80.3382
rradius 22.8483
rwrist 34.0292
rhand -20.681 -26.5154
rfingers 7.12502
rthumb 5.68237 -56.4192
lclavicle 2.18663e-015 -4.96962e-015
lhumerus -20.7068 -2.64658 89.5294
lradius 17.9336
lwrist 3.95353
lhand -26.2546 -4.94718
lfingers 7.12502
lthumb 0.299831 25.0324
rfemur -14.1426 -2.99069 19.9505
rtibia 20.0316
rfoot -11.5255 -2.71929
rtoes 15.9305
lfemur -12.5451 6.49079 -17.1677
ltibia 16.0595
lfoot -8.6848 1.57095
ltoes 5.1318
